<svg width="130" height="22" viewBox="0 0 130 22" fill="none" xmlns="http://www.w3.org/2000/svg">
<path fill-rule="evenodd" clip-rule="evenodd" d="M127.63 0.793361C127.467 0.743861 127.441 0.710764 127.441 0.662712C127.441 0.620545 127.479 0.58301 127.554 0.58301C127.651 0.58301 127.7 0.629712 127.735 0.704685L127.938 0.585905C127.862 0.431229 127.727 0.348633 127.554 0.348633C127.373 0.348633 127.202 0.46587 127.202 0.668694C127.202 0.870071 127.354 0.945142 127.511 0.988659C127.668 1.03227 127.728 1.05784 127.728 1.12249C127.728 1.16302 127.7 1.20798 127.586 1.20798C127.467 1.20798 127.403 1.14951 127.365 1.06238L127.159 1.18251C127.217 1.33738 127.357 1.44255 127.578 1.44255C127.806 1.44255 127.968 1.32223 127.968 1.1195C127.968 0.896992 127.789 0.84151 127.63 0.793361Z" fill="#ffffff"/>
<path fill-rule="evenodd" clip-rule="evenodd" d="M128.932 0.369629L128.648 0.836936L128.362 0.369629H128.123V1.42129H128.362V0.809725L128.634 1.256H128.661L128.932 0.809725V1.42129H129.172V0.369629H128.932Z" fill="#ffffff"/>
<path fill-rule="evenodd" clip-rule="evenodd" d="M84.301 7.95043C84.3029 7.9649 84.301 21.477 84.301 21.477C84.3013 21.6583 84.1789 21.8429 83.9999 21.8431H82.1643C81.0907 21.8447 80.1994 20.9292 80.1979 19.8412V8.00022C80.116 5.43876 78.3178 4.08509 76.1129 4.08827C73.908 4.09136 72.1136 5.50418 72.039 8.06583V21.4943C72.0393 21.6756 71.9118 21.8429 71.7329 21.8431H69.8972C68.8237 21.8447 67.9324 20.8861 67.9308 19.7982L67.9309 8.01768C67.8489 5.45623 66.0508 4.10255 63.8458 4.10564C61.6409 4.10882 59.8465 5.46752 59.7719 8.02926V21.5118C59.7721 21.6931 59.6447 21.8429 59.4658 21.8431H57.6302C56.5566 21.8446 55.67 20.9639 55.6684 19.8761C55.6684 19.8761 55.6674 8.01218 55.6684 8.00099C55.7746 2.80079 59.3908 0.041814 63.84 0.0354456C66.2818 0.0319719 68.4751 0.858323 69.977 2.46413C71.4745 0.854077 73.6653 0.0215508 76.107 0.0180771C80.5535 0.0118052 84.1756 2.75698 84.301 7.95043Z" fill="#ffffff"/>
<mask id="mask0" mask-type="alpha" maskUnits="userSpaceOnUse" x="0" y="0" width="127" height="22">
<path fill-rule="evenodd" clip-rule="evenodd" d="M0.748535 0.0102539H126.613V21.994H0.748535V0.0102539Z" fill="white"/>
</mask>
<g mask="url(#mask0)">
<path fill-rule="evenodd" clip-rule="evenodd" d="M126.585 21.5826C126.658 21.6908 126.578 21.8346 126.445 21.8345L123.167 21.8433C122.398 21.8456 121.649 21.7514 120.984 20.8186L117.63 15.867C117.368 15.4794 116.987 15.0202 116.446 15.0202C115.905 15.0202 115.524 15.4794 115.261 15.867L111.907 20.8186C111.242 21.7514 110.493 21.8456 109.724 21.8433H106.447C106.314 21.8434 106.234 21.6908 106.307 21.5826L112.776 12.0289C112.964 11.7505 113.055 11.4266 113.052 11.1035C113.055 10.7805 112.964 10.4565 112.776 10.1782L106.307 0.624366C106.234 0.516199 106.314 0.369532 106.447 0.369629L109.724 0.369918C110.493 0.367603 111.242 0.455603 111.907 1.38838L115.261 6.34002C115.524 6.72753 115.905 7.18683 116.446 7.18683C116.987 7.18683 117.368 6.72753 117.63 6.34002L120.984 1.38838C121.649 0.455603 122.398 0.367603 123.167 0.369918H126.445C126.578 0.369822 126.658 0.516199 126.585 0.624366L120.116 10.1782C119.927 10.4565 119.837 10.7805 119.84 11.1035C119.837 11.4266 119.927 11.7505 120.116 12.0289L126.585 21.5826Z" fill="#ffffff"/>
<path fill-rule="evenodd" clip-rule="evenodd" d="M95.1882 17.9091C91.766 17.9091 89.2585 15.3608 89.2585 11.009C89.2585 6.65724 91.766 4.10891 95.1882 4.10891C98.6104 4.10891 101.118 6.65724 101.118 11.009C101.118 15.3608 98.6104 17.9091 95.1882 17.9091ZM105.017 0.369777L103.726 0.369487C103.018 0.36997 102.364 0.746575 102.009 1.35833L101.532 2.1923C99.6742 0.627601 97.266 0.0180664 95.2765 0.0180664C89.2585 0.0180664 85.2524 4.27217 85.2524 11.009C85.2524 17.7996 89.3258 21.9999 95.2283 21.9999C97.4878 21.9999 99.7282 21.2516 101.161 20.0916C101.242 21.1102 102.095 21.8431 103.137 21.8431H105.01C105.193 21.8431 105.34 21.7644 105.34 21.5823L105.348 0.699487C105.348 0.517409 105.2 0.369777 105.017 0.369777Z" fill="#ffffff"/>
<path fill-rule="evenodd" clip-rule="evenodd" d="M10.5428 8.35726H6.75829V0.369141H0.748535V21.843H6.75829V13.5112H10.5428V21.843H16.373V0.369141H10.5428V8.35726Z" fill="#ffffff"/>
<path fill-rule="evenodd" clip-rule="evenodd" d="M43.0959 16.4023C40.0784 16.4023 37.6323 13.955 37.6323 10.9358C37.6323 7.91704 40.0784 5.46963 43.0959 5.46963C46.1135 5.46963 48.5597 7.91704 48.5597 10.9358C48.5597 13.955 46.1135 16.4023 43.0959 16.4023ZM30.0245 10.9358C30.7006 10.85 31.8275 10.0768 32.2245 9.58315C32.085 10.1952 32.0744 11.9667 32.2374 12.5787C31.7843 11.8809 30.7114 11.0217 30.0245 10.9358ZM26.0966 8.77812H23.1455V5.1488H26.0966C26.9551 5.1488 27.6314 5.99676 27.6314 6.96322C27.6314 7.92958 26.9551 8.77812 26.0966 8.77812ZM26.0857 16.8413H23.1348V13.212H26.0857C26.9443 13.212 27.6206 14.0604 27.6206 15.0266C27.6206 15.9932 26.9443 16.8413 26.0857 16.8413ZM43.0924 0.0102571C37.0859 0.005915 34.0169 4.42936 33.2586 6.21484C33.2658 3.5345 30.6254 0.370845 27.5367 0.367371H17.5854V21.8427L26.8633 21.8445C30.604 21.8445 33.2657 18.6018 33.2702 15.8211C34.124 17.5712 37.0859 21.9519 43.0924 21.9497C49.1056 21.9473 53.9992 16.9486 53.998 10.9315C53.9967 4.78754 49.1056 0.0147922 43.0924 0.0102571Z" fill="#ffffff"/>
</g>
<path fill-rule="evenodd" clip-rule="evenodd" d="M43.0958 6.63867C40.7235 6.63867 38.8008 8.56271 38.8008 10.9357C38.8008 13.3093 40.7235 15.233 43.0958 15.233C45.4678 15.233 47.3909 13.3093 47.3909 10.9357C47.3909 8.56271 45.4678 6.63867 43.0958 6.63867Z" fill="#ffffff"/>
</svg>
